<?xml version="1.0" encoding="utf-8"?><svg xmlns="http://www.w3.org/2000/svg" xmlns:xlink="http://www.w3.org/1999/xlink"><symbol fill="none" viewBox="0 0 39 8" id="arr-red" xmlns="http://www.w3.org/2000/svg"><path d="M38.354 4.354a.5.5 0 000-.707L35.172.465a.5.5 0 10-.707.707L37.293 4 34.465 6.83a.5.5 0 10.707.707l3.182-3.182zM0 4.5h38v-1H0v1z" fill="#CB2121"/></symbol><symbol fill="none" viewBox="0 0 32 32" id="ig" xmlns="http://www.w3.org/2000/svg"><path d="M16 9.59A6.4 6.4 0 009.59 16 6.4 6.4 0 0016 22.41 6.4 6.4 0 0022.41 16 6.4 6.4 0 0016 9.59zm0 10.576A4.174 4.174 0 0111.835 16 4.174 4.174 0 0116 11.834 4.175 4.175 0 0120.166 16 4.174 4.174 0 0116 20.166zm6.672-12.332c-.828 0-1.497.669-1.497 1.497 0 .828.669 1.497 1.497 1.497a1.493 1.493 0 001.383-2.07 1.495 1.495 0 00-1.383-.924zM28.494 16c0-1.725.015-3.434-.081-5.156-.097-2-.553-3.775-2.016-5.238C24.931 4.14 23.16 3.687 21.16 3.59c-1.726-.096-3.435-.08-5.157-.08-1.725 0-3.434-.016-5.156.08-2 .097-3.775.554-5.237 2.016-1.466 1.466-1.92 3.238-2.016 5.238-.097 1.725-.081 3.434-.081 5.156 0 1.722-.016 3.434.08 5.156.098 2 .554 3.775 2.017 5.238 1.465 1.465 3.237 1.918 5.237 2.015 1.725.097 3.434.082 5.156.082 1.725 0 3.435.015 5.157-.082 2-.097 3.774-.553 5.237-2.015 1.466-1.466 1.919-3.238 2.016-5.238.1-1.722.08-3.431.08-5.156zm-2.75 7.369a3.97 3.97 0 01-.944 1.43c-.44.442-.862.716-1.431.945-1.644.653-5.547.506-7.369.506s-5.728.147-7.372-.503a3.97 3.97 0 01-1.431-.944 3.998 3.998 0 01-.944-1.431c-.65-1.647-.503-5.55-.503-7.372s-.147-5.728.503-7.372c.228-.569.503-.994.944-1.431a4.04 4.04 0 011.431-.944c1.644-.65 5.55-.503 7.372-.503s5.728-.147 7.372.503a3.97 3.97 0 011.431.944c.44.44.716.862.944 1.431.65 1.644.503 5.55.503 7.372s.147 5.725-.506 7.369z" fill="#fff"/></symbol><symbol fill="#fff" viewBox="0 0 25 25" id="phone" xmlns="http://www.w3.org/2000/svg"><path d="M24.628 20.014l-3.383 3.356c-.5.512-1.162.686-1.807.687-2.851-.086-5.546-1.486-7.76-2.925-3.632-2.642-6.965-5.919-9.056-9.879C1.819 9.593.878 7.474.968 5.621c.008-.697.196-1.382.687-1.831L5.039.408C5.74-.19 6.42.017 6.87.713l2.723 5.162c.286.612.122 1.267-.306 1.704L8.041 8.825a.612.612 0 00-.128.356c.478 1.85 1.927 3.556 3.206 4.73 1.28 1.173 2.655 2.764 4.44 3.14.22.062.49.083.648-.063l1.45-1.475c.5-.38 1.222-.565 1.756-.255h.025l4.91 2.9c.721.451.797 1.324.28 1.855z"/></symbol><symbol fill="none" viewBox="0 0 32 32" id="tg" xmlns="http://www.w3.org/2000/svg"><path d="M26.38 6.132L5.12 14.33c-1.45.583-1.442 1.393-.266 1.753l5.459 1.703L22.94 9.818c.597-.363 1.143-.168.694.23l-10.231 9.234H13.4l.003.002-.377 5.626c.552 0 .795-.253 1.105-.552l2.65-2.578 5.515 4.073c1.017.56 1.747.272 2-.94l3.62-17.061c.37-1.486-.567-2.159-1.537-1.72z" fill="#fff"/></symbol><symbol fill="none" viewBox="0 0 32 32" id="viber" xmlns="http://www.w3.org/2000/svg"><path d="M16 26.666a10.667 10.667 0 100-21.333 10.667 10.667 0 000 21.334zm0 2.667c-7.364 0-13.333-5.97-13.333-13.333C2.667 8.636 8.637 2.666 16 2.666c7.364 0 13.334 5.97 13.334 13.334S23.364 29.333 16 29.333z" fill="#fff"/><path d="M20.859 15.205c.016-1.99-1.625-3.813-3.659-4.065l-.133-.02a1.848 1.848 0 00-.31-.035c-.417 0-.527.301-.557.481a.575.575 0 00.08.439c.139.193.382.227.576.256.058.008.112.015.156.027 1.828.42 2.444 1.082 2.744 2.953.008.047.01.103.014.163.013.222.04.688.526.688a.73.73 0 00.128-.011c.452-.07.438-.496.43-.7a1.075 1.075 0 01.004-.175v-.001z" fill="#fff"/><path d="M16.64 10.409c.054.004.107.008.148.015 3 .477 4.382 1.944 4.764 5.066.007.054.007.118.009.187.003.244.012.75.54.761h.015a.511.511 0 00.393-.153c.163-.177.153-.44.143-.653-.002-.051-.005-.1-.004-.143.038-3.193-2.64-6.09-5.73-6.196l-.037.001a.252.252 0 01-.037.003c-.03 0-.069-.003-.109-.005a1.947 1.947 0 00-.16-.008c-.492 0-.585.36-.597.576-.027.497.438.533.662.549zm4.767 9.116a9.68 9.68 0 01-.19-.153c-.328-.272-.678-.523-1.014-.766-.07-.05-.14-.1-.21-.152-.432-.312-.82-.465-1.187-.465-.494 0-.924.283-1.28.839-.157.245-.35.365-.584.365a1.13 1.13 0 01-.47-.121c-1.394-.654-2.39-1.654-2.96-2.974-.274-.64-.186-1.056.3-1.396.274-.192.786-.55.75-1.237-.04-.78-1.708-3.127-2.41-3.393-.3-.113-.631-.114-.931-.003-.807.28-1.387.773-1.677 1.423-.28.629-.266 1.366.038 2.134.876 2.222 2.106 4.158 3.661 5.755 1.52 1.564 3.39 2.844 5.555 3.807.195.086.4.133.55.168l.126.032a.205.205 0 00.053.008h.017c1.02 0 2.242-.96 2.618-2.056.33-.96-.272-1.434-.755-1.814v-.001zm-4.316-6.579c-.173.004-.537.014-.665.395-.059.179-.052.333.021.46.108.187.316.244.504.275.683.113 1.035.504 1.104 1.226.034.339.253.574.536.574.021 0 .043 0 .064-.003.34-.043.504-.3.49-.767.005-.488-.242-1.04-.662-1.48-.421-.442-.93-.692-1.392-.68z" fill="#fff"/></symbol><symbol fill="none" viewBox="0 0 32 32" id="wa" xmlns="http://www.w3.org/2000/svg"><path fill-rule="evenodd" clip-rule="evenodd" d="M21.499 18.382c-.3-.149-1.768-.867-2.041-.967-.273-.099-.472-.148-.672.15-.2.296-.77.966-.945 1.164-.175.199-.348.223-.647.075-.298-.15-1.26-.463-2.401-1.475-.888-.788-1.487-1.761-1.661-2.059-.174-.297-.02-.458.13-.606.135-.133.299-.347.448-.52.15-.174.2-.298.299-.497.1-.198.05-.371-.025-.52-.075-.149-.671-1.612-.92-2.207-.243-.579-.489-.5-.672-.51a12.98 12.98 0 00-.573-.01c-.199 0-.522.074-.795.372-.275.297-1.045 1.016-1.045 2.479 0 1.462 1.069 2.875 1.219 3.074.15.198 2.105 3.2 5.1 4.487.713.306 1.269.489 1.702.625.715.227 1.367.195 1.881.118.573-.085 1.767-.719 2.016-1.413.248-.694.248-1.289.174-1.413-.075-.124-.274-.198-.573-.347zm-5.448 7.403h-.004a9.954 9.954 0 01-5.056-1.378l-.362-.214-3.76.982 1.004-3.648-.237-.374a9.826 9.826 0 01-1.518-5.26c.002-5.45 4.457-9.884 9.937-9.884a9.885 9.885 0 017.021 2.898 9.785 9.785 0 012.906 6.993c-.002 5.45-4.457 9.885-9.931 9.885zm8.452-18.297a11.875 11.875 0 00-3.875-2.587A11.921 11.921 0 0016.05 4C9.464 4 4.102 9.335 4.1 15.892a11.82 11.82 0 001.595 5.945L4 28l6.334-1.654a11.984 11.984 0 005.712 1.448h.005c6.585 0 11.947-5.335 11.949-11.893a11.77 11.77 0 00-.902-4.555 11.819 11.819 0 00-2.595-3.858z" fill="#fff"/></symbol></svg>