<svg width="56" height="56" viewBox="0 0 56 56" fill="none" xmlns="http://www.w3.org/2000/svg">
<path d="M16.3337 51.3334H9.33366C8.09598 51.3334 6.909 50.8417 6.03383 49.9666C5.15866 49.0914 4.66699 47.9044 4.66699 46.6667V30.3334C4.66699 29.0957 5.15866 27.9088 6.03383 27.0336C6.909 26.1584 8.09598 25.6667 9.33366 25.6667H16.3337M32.667 21.0001V11.6667C32.667 9.81023 31.9295 8.02976 30.6167 6.717C29.304 5.40425 27.5235 4.66675 25.667 4.66675L16.3337 25.6667V51.3334H42.6537C43.7791 51.3461 44.8712 50.9517 45.7288 50.2228C46.5863 49.4938 47.1516 48.4795 47.3203 47.3667L50.5403 26.3667C50.6418 25.6979 50.5967 25.015 50.4081 24.3653C50.2195 23.7157 49.8919 23.1148 49.448 22.6043C49.0041 22.0938 48.4545 21.6859 47.8373 21.4089C47.2201 21.1319 46.5501 20.9924 45.8737 21.0001H32.667Z" stroke="white" stroke-width="4" stroke-linecap="round" stroke-linejoin="round"/>
</svg>
