<svg width="96" height="96" viewBox="0 0 96 96" fill="none" xmlns="http://www.w3.org/2000/svg">
<path d="M95.0664 38.5992H91.2V38.4H48V57.6H75.1272C71.1696 68.7768 60.5352 76.8 48 76.8C32.0952 76.8 19.2 63.9048 19.2 48C19.2 32.0952 32.0952 19.2 48 19.2C55.3416 19.2 62.0208 21.9696 67.1064 26.4936L80.6832 12.9168C72.1104 4.9272 60.6432 0 48 0C21.492 0 0 21.492 0 48C0 74.508 21.492 96 48 96C74.508 96 96 74.508 96 48C96 44.7816 95.6688 41.64 95.0664 38.5992Z" fill="#FFC107"/>
<path d="M5.53516 25.6584L21.3056 37.224C25.5728 26.6592 35.9072 19.2 48.0008 19.2C55.3424 19.2 62.0216 21.9696 67.1072 26.4936L80.684 12.9168C72.1112 4.9272 60.644 0 48.0008 0C29.564 0 13.5752 10.4088 5.53516 25.6584Z" fill="#FF3D00"/>
<path d="M47.9996 96C60.398 96 71.6636 91.2552 80.1812 83.5392L65.3252 70.968C60.506 74.6184 54.5156 76.8 47.9996 76.8C35.5148 76.8 24.914 68.8392 20.9204 57.7296L5.26758 69.7896C13.2116 85.3344 29.3444 96 47.9996 96Z" fill="#4CAF50"/>
<path d="M95.0664 38.5992H91.2V38.4H48V57.6H75.1272C73.2264 62.9688 69.7728 67.5984 65.3184 70.9704C65.3208 70.968 65.3232 70.968 65.3256 70.9656L80.1816 83.5368C79.1304 84.492 96 72 96 48C96 44.7816 95.6688 41.64 95.0664 38.5992Z" fill="#1976D2"/>
</svg>
