<svg width="25" height="25" viewBox="0 0 25 25" fill="white" xmlns="http://www.w3.org/2000/svg">
    <path
        d="M24.6284 20.0135L21.2447 23.3701C20.7452 23.8823 20.0832 24.0559 19.4384 24.0566C16.587 23.9712 13.8917 22.5706 11.6788 21.1323C8.04632 18.4897 4.7134 15.213 2.6216 11.2533C1.81932 9.59282 0.877958 7.4742 0.967898 5.62082C0.975918 4.92362 1.1638 4.23936 1.65482 3.78996L5.03854 0.407938C5.74118 -0.189722 6.42068 0.0169178 6.87032 0.713078L9.59254 5.87512C9.87906 6.48666 9.7147 7.1419 9.28722 7.57888L8.04058 8.82488C7.96362 8.9303 7.91462 9.0503 7.91338 9.1809C8.39142 11.0313 9.83964 12.7369 11.119 13.9106C12.3983 15.0844 13.7735 16.6746 15.5585 17.051C15.7792 17.1126 16.0494 17.1342 16.2073 16.9875L17.6575 15.5126C18.1574 15.1337 18.8792 14.9485 19.4129 15.2583H19.4384L24.3486 18.1572C25.0694 18.609 25.1445 19.4822 24.6284 20.0135Z" />
</svg>