<svg width="32" height="32" viewBox="0 0 32 32" fill="none" xmlns="http://www.w3.org/2000/svg">
<path d="M16.0003 26.6665C18.8293 26.6665 21.5424 25.5427 23.5428 23.5423C25.5432 21.5419 26.667 18.8288 26.667 15.9998C26.667 13.1709 25.5432 10.4578 23.5428 8.45737C21.5424 6.45698 18.8293 5.33317 16.0003 5.33317C13.1713 5.33317 10.4582 6.45698 8.45785 8.45737C6.45747 10.4578 5.33366 13.1709 5.33366 15.9998C5.33366 18.8288 6.45747 21.5419 8.45785 23.5423C10.4582 25.5427 13.1713 26.6665 16.0003 26.6665ZM16.0003 29.3332C8.63633 29.3332 2.66699 23.3638 2.66699 15.9998C2.66699 8.63584 8.63633 2.6665 16.0003 2.6665C23.3643 2.6665 29.3337 8.63584 29.3337 15.9998C29.3337 23.3638 23.3643 29.3332 16.0003 29.3332Z" fill="white"/>
<path d="M20.8589 15.205C20.8749 13.2156 19.2336 11.3916 17.2002 11.1396L17.0669 11.1196C16.9649 11.0994 16.8615 11.0878 16.7576 11.085C16.3402 11.085 16.2296 11.3863 16.2002 11.5663C16.1836 11.641 16.1821 11.7184 16.1958 11.7937C16.2096 11.8691 16.2383 11.9409 16.2802 12.005C16.4189 12.1983 16.6616 12.2316 16.8562 12.261C16.9136 12.269 16.9682 12.2756 17.0122 12.2876C18.8402 12.7076 19.4562 13.3703 19.7562 15.241C19.7642 15.2876 19.7669 15.3436 19.7696 15.4036C19.7829 15.6263 19.8109 16.0916 20.2962 16.0916C20.3362 16.0916 20.3789 16.089 20.4242 16.081C20.8762 16.0103 20.8616 15.585 20.8549 15.381C20.8515 15.3317 20.8515 15.2822 20.8549 15.233C20.8564 15.2241 20.8572 15.2152 20.8576 15.2063L20.8589 15.205Z" fill="white"/>
<path d="M16.6405 10.409C16.6938 10.413 16.7472 10.417 16.7885 10.4237C19.7885 10.901 21.1698 12.3677 21.5525 15.4904C21.5592 15.5437 21.5592 15.6077 21.5605 15.677C21.5645 15.921 21.5725 16.4277 22.1005 16.4384H22.1165C22.189 16.4422 22.2615 16.4305 22.3291 16.4041C22.3967 16.3776 22.4579 16.337 22.5085 16.285C22.6725 16.1077 22.6618 15.845 22.6525 15.6317C22.6498 15.581 22.6472 15.5317 22.6485 15.489C22.6858 12.2957 20.0085 9.39969 16.9178 9.29302L16.8805 9.29436C16.8686 9.29611 16.8565 9.297 16.8445 9.29703C16.8138 9.29703 16.7752 9.29436 16.7352 9.29169C16.682 9.28683 16.6286 9.28416 16.5752 9.28369C16.0832 9.28369 15.9898 9.64369 15.9778 9.85969C15.9512 10.357 16.4165 10.393 16.6405 10.409ZM21.4072 19.525C21.343 19.4747 21.2794 19.4236 21.2165 19.3717C20.8885 19.0997 20.5392 18.849 20.2032 18.6064C20.1329 18.5558 20.0626 18.5051 19.9925 18.4544C19.5605 18.1424 19.1725 17.989 18.8058 17.989C18.3125 17.989 17.8818 18.2717 17.5258 18.8277C17.3685 19.073 17.1765 19.193 16.9418 19.193C16.778 19.1872 16.6174 19.1458 16.4712 19.0717C15.0778 18.4184 14.0818 17.4184 13.5125 16.0984C13.2378 15.4584 13.3258 15.0424 13.8112 14.7024C14.0858 14.5104 14.5978 14.1517 14.5618 13.465C14.5218 12.685 12.8538 10.3384 12.1512 10.0717C11.8514 9.95857 11.5209 9.95762 11.2205 10.069C10.4138 10.349 9.83383 10.8424 9.5445 11.4917C9.2645 12.121 9.27783 12.8584 9.58183 13.6264C10.4578 15.8477 11.6885 17.7837 13.2432 19.381C14.7632 20.945 16.6325 22.225 18.7978 23.1877C18.9925 23.2744 19.1978 23.321 19.3472 23.3557L19.4738 23.3877C19.4912 23.3927 19.5091 23.3954 19.5272 23.3957H19.5445C20.5632 23.3957 21.7858 22.4357 22.1618 21.3397C22.4912 20.3797 21.8898 19.9064 21.4072 19.5264V19.525ZM17.0912 12.9464C16.9178 12.9504 16.5538 12.9597 16.4258 13.341C16.3672 13.5197 16.3738 13.6744 16.4472 13.801C16.5552 13.9877 16.7632 14.045 16.9512 14.0757C17.6338 14.189 17.9858 14.5797 18.0552 15.3024C18.0885 15.641 18.3085 15.8757 18.5912 15.8757C18.6125 15.8761 18.6339 15.8753 18.6552 15.873C18.9952 15.8304 19.1592 15.573 19.1445 15.1064C19.1498 14.6184 18.9032 14.0664 18.4832 13.6264C18.0618 13.1837 17.5538 12.9344 17.0912 12.9464Z" fill="white"/>
</svg>
