<svg width="32" height="32" viewBox="0 0 32 32" fill="none" xmlns="http://www.w3.org/2000/svg">
<path fill-rule="evenodd" clip-rule="evenodd" d="M21.4988 18.382C21.1994 18.233 19.7313 17.515 19.458 17.415C19.1847 17.316 18.9858 17.267 18.7858 17.565C18.5869 17.861 18.0151 18.531 17.8413 18.729C17.6665 18.928 17.4926 18.952 17.1942 18.804C16.8958 18.654 15.9332 18.341 14.7927 17.329C13.9054 16.541 13.3056 15.568 13.1317 15.27C12.9579 14.973 13.1126 14.812 13.2624 14.664C13.397 14.531 13.5608 14.317 13.7105 14.144C13.8602 13.97 13.9095 13.846 14.0089 13.647C14.1094 13.449 14.0592 13.276 13.9838 13.127C13.9095 12.978 13.3126 11.515 13.0634 10.92C12.8212 10.341 12.5751 10.42 12.3922 10.41C12.2174 10.402 12.0184 10.4 11.8194 10.4C11.6205 10.4 11.2969 10.474 11.0236 10.772C10.7493 11.069 9.97863 11.788 9.97863 13.251C9.97863 14.713 11.0478 16.126 11.1975 16.325C11.3472 16.523 13.3026 19.525 16.2979 20.812C17.0113 21.118 17.567 21.301 18.0001 21.437C18.7155 21.664 19.3666 21.632 19.8811 21.555C20.4538 21.47 21.6475 20.836 21.8967 20.142C22.1449 19.448 22.1449 18.853 22.0705 18.729C21.9962 18.605 21.7972 18.531 21.4978 18.382H21.4988ZM16.0507 25.785H16.0467C14.2676 25.7853 12.5212 25.3094 10.9905 24.407L10.6287 24.193L6.86874 25.175L7.87255 21.527L7.63642 21.153C6.64179 19.5774 6.11543 17.7538 6.11814 15.893C6.12015 10.443 10.5755 6.00904 16.0547 6.00904C18.7074 6.00904 21.2014 7.03904 23.0764 8.90703C24.0012 9.82361 24.7342 10.9136 25.233 12.1139C25.7318 13.3143 25.9864 14.6011 25.9823 15.9C25.9803 21.35 21.5249 25.785 16.0507 25.785ZM24.5032 7.48804C23.3961 6.37896 22.0788 5.49958 20.6277 4.90084C19.1766 4.3021 17.6206 3.99592 16.0497 4.00004C9.46417 4.00004 4.10249 9.33503 4.10048 15.892C4.09948 17.988 4.64911 20.034 5.69512 21.837L4 28L10.3343 26.346C12.0866 27.2961 14.0502 27.794 16.0457 27.794H16.0507C22.6363 27.794 27.9979 22.459 27.9999 15.901C28.0048 14.3383 27.6983 12.7901 27.0981 11.3461C26.4978 9.902 25.6159 8.5907 24.5032 7.48804Z" fill="white"/>
</svg>
